<svg width="50" height="18" viewBox="0 0 50 18" fill="none" xmlns="http://www.w3.org/2000/svg">
<path d="M48.1891 6.41802L44.2219 5.84146L42.4484 2.24615C42.4 2.14771 42.3203 2.06802 42.2219 2.01959C41.975 1.89771 41.675 1.99927 41.5516 2.24615L39.7781 5.84146L35.8109 6.41802C35.7016 6.43365 35.6016 6.48521 35.525 6.56334C35.4324 6.65847 35.3814 6.78646 35.3832 6.91918C35.385 7.0519 35.4393 7.1785 35.5344 7.27115L38.4047 10.0696L37.7266 14.0211C37.7107 14.1131 37.7208 14.2076 37.7559 14.294C37.791 14.3805 37.8496 14.4554 37.9251 14.5102C38.0006 14.565 38.0899 14.5976 38.183 14.6042C38.276 14.6108 38.3691 14.5913 38.4516 14.5477L42 12.6821L45.5484 14.5477C45.6453 14.5993 45.7578 14.6165 45.8656 14.5977C46.1375 14.5508 46.3203 14.293 46.2734 14.0211L45.5953 10.0696L48.4656 7.27115C48.5437 7.19459 48.5953 7.09459 48.6109 6.98521C48.6531 6.71177 48.4625 6.45865 48.1891 6.41802Z" fill="#FEA250"/>
<path d="M6.432 14.605C6.32533 14.605 6.23467 14.573 6.16 14.509C6.096 14.4343 6.064 14.3436 6.064 14.237V11.901H0.864C0.757333 11.901 0.666667 11.869 0.592 11.805C0.528 11.7303 0.496 11.6396 0.496 11.533V10.941C0.496 10.7916 0.554667 10.6316 0.672 10.461L5.488 3.67698C5.54133 3.59165 5.62133 3.52765 5.728 3.48498C5.83467 3.43165 5.952 3.40498 6.08 3.40498H7.168C7.28533 3.40498 7.376 3.43698 7.44 3.50098C7.504 3.56498 7.536 3.65565 7.536 3.77298V10.557H8.992C9.09867 10.557 9.184 10.5943 9.248 10.669C9.32267 10.733 9.36 10.8183 9.36 10.925V11.533C9.36 11.6396 9.32267 11.7303 9.248 11.805C9.184 11.869 9.09867 11.901 8.992 11.901H7.536V14.237C7.536 14.3436 7.49867 14.4343 7.424 14.509C7.36 14.573 7.27467 14.605 7.168 14.605H6.432ZM2.16 10.589H6.08V5.02098L2.16 10.589ZM11.0966 14.605C10.99 14.605 10.8993 14.573 10.8246 14.509C10.7606 14.4343 10.7286 14.3436 10.7286 14.237V13.133C10.7286 13.0263 10.7606 12.9356 10.8246 12.861C10.8993 12.7863 10.99 12.749 11.0966 12.749H12.2006C12.3073 12.749 12.3926 12.7863 12.4566 12.861C12.5313 12.9356 12.5686 13.0263 12.5686 13.133V14.237C12.5686 14.3436 12.5313 14.4343 12.4566 14.509C12.3926 14.573 12.3073 14.605 12.2006 14.605H11.0966ZM18.2966 14.765C17.4966 14.765 16.8033 14.621 16.2166 14.333C15.63 14.045 15.182 13.6716 14.8726 13.213C14.5633 12.7436 14.398 12.2423 14.3766 11.709V11.677C14.3766 11.5916 14.4086 11.5223 14.4726 11.469C14.5366 11.4156 14.6113 11.389 14.6966 11.389H15.4806C15.7046 11.389 15.8486 11.5063 15.9126 11.741C16.0726 12.317 16.366 12.749 16.7926 13.037C17.23 13.3143 17.7313 13.453 18.2966 13.453C19.022 13.453 19.6246 13.2343 20.1046 12.797C20.5846 12.349 20.8246 11.7356 20.8246 10.957C20.8246 10.2423 20.5846 9.67698 20.1046 9.26098C19.6246 8.83431 19.022 8.62098 18.2966 8.62098C17.9126 8.62098 17.6033 8.66898 17.3686 8.76498C17.134 8.86098 16.894 8.99965 16.6486 9.18098C16.51 9.28765 16.3926 9.36765 16.2966 9.42098C16.2113 9.46365 16.1153 9.48498 16.0086 9.48498H15.2406C15.1446 9.48498 15.0593 9.45298 14.9846 9.38898C14.91 9.31431 14.878 9.22898 14.8886 9.13298L15.3846 3.80498C15.4166 3.53831 15.55 3.40498 15.7846 3.40498H21.3206C21.438 3.40498 21.5286 3.43698 21.5926 3.50098C21.6566 3.56498 21.6886 3.65565 21.6886 3.77298V4.36498C21.6886 4.47165 21.6513 4.55698 21.5766 4.62098C21.5126 4.68498 21.4273 4.71698 21.3206 4.71698H16.7126L16.4246 7.93298C16.9366 7.57031 17.6246 7.38898 18.4886 7.38898C19.2033 7.38898 19.854 7.53298 20.4406 7.82098C21.0273 8.09831 21.4913 8.50898 21.8326 9.05298C22.1846 9.59698 22.3606 10.2423 22.3606 10.989C22.3606 11.7783 22.1846 12.461 21.8326 13.037C21.4913 13.6023 21.0113 14.0343 20.3926 14.333C19.7846 14.621 19.086 14.765 18.2966 14.765Z" fill="#0B132A"/>
</svg>
